# xmcd
#
# Track frame offsets:
#	150
#	20470
#	36790
#	59195
#	75612
#	96585
#	118625
#	134525
#	148462
#	164650
#	181492
#	197837
#	222267
#	242872
#	261230
#	279112
#
# Disc length: 3960 seconds
#
# Revision: 1
# Processed by: cddbd v1.5PL3 Copyright (c) Steve Scherf et al.
# Submitted via: CDex 1.50Beta5
#
DISCID=010f7610
DTITLE=桂銀淑 - 桂銀淑　２００３全曲集
DYEAR=2002
DGENRE=Pop
TTITLE0=すずめの涙
TTITLE1=北空港
TTITLE2=ベサメムーチョ
TTITLE3=夢おんな
TTITLE4=グッバイ　ラブ
TTITLE5=花のように鳥のように
TTITLE6=雪が降る
TTITLE7=人形の家
TTITLE8=大阪暮色
TTITLE9=酔いどれて
TTITLE10=真夜中のシャワー
TTITLE11=都会の天使たち
TTITLE12=東京ＨＯＬＤ　ＭＥ　ＴＩＧＨＴ
TTITLE13=アモーレ〜はげしく愛して〜
TTITLE14=離別
TTITLE15=愛の迷路
EXTD=
EXTT0=
EXTT1=
EXTT2=
EXTT3=
EXTT4=
EXTT5=
EXTT6=
EXTT7=
EXTT8=
EXTT9=
EXTT10=
EXTT11=
EXTT12=
EXTT13=
EXTT14=
EXTT15=
PLAYORDER=
